<svg xmlns="http://www.w3.org/2000/svg" xmlns:svg="http://www.w3.org/2000/svg" id="svg18" width="64" height="64" version="1.1" viewBox="0 0 48 48"><metadata id="metadata22"/><defs id="defs5"><clipPath id="clip1"><path id="path2" d="M 0,340.15625 H 481.89062 V 0 H 0 Z m 0,0"/></clipPath></defs><g id="surface0" transform="matrix(0.09960767,0,0,0.09960767,-0.1503886,5.8491832)"><g id="g15" clip-path="url(#clip1)" style="clip-rule:nonzero"><path style="fill:#453b61;fill-opacity:1;fill-rule:nonzero;stroke:none" id="path7" d="M 0,340.15625 113.38672,170.07812 0,0 H 85.039062 L 198.42578,170.07812 85.039062,340.15625 Z m 0,0"/><path style="fill:#5f5286;fill-opacity:1;fill-rule:nonzero;stroke:none" id="path9" d="M 113.38672,340.15625 226.77344,170.07812 113.38672,0 h 85.03906 L 425.19531,340.15625 H 340.15625 L 269.29297,233.85937 198.42578,340.15625 Z m 0,0"/><path style="fill:#8e508a;fill-opacity:1;fill-rule:nonzero;stroke:none" id="path11" d="m 387.40234,240.94531 -37.79297,-56.6914 132.28125,-0.004 v 56.69531 z m 0,0"/><path style="fill:#8e508a;fill-opacity:1;fill-rule:nonzero;stroke:none" id="path13" d="m 330.71094,155.90625 -37.79688,-56.691406 188.97656,-0.0039 v 56.695316 z m 0,0"/></g></g></svg>